<?xml version="1.0" encoding="UTF-8"?>
<svg xmlns="http://www.w3.org/2000/svg" viewBox="0 0 1200 720" width="1200" height="720" role="img" aria-label="Branch + HQ (hub-and-spoke VPN) (branch-hq)">
  <title>Branch + HQ (hub-and-spoke VPN) (branch-hq)</title>
  <desc>Generated by scripts/renderNetworkSvgs.ts.</desc>
  <g class="layer-guides" pointer-events="none">
    <line x1="0" y1="136" x2="1200" y2="136" stroke="#1f2937" stroke-width="1" stroke-opacity="0.75" />
    <line x1="0" y1="216" x2="1200" y2="216" stroke="#1f2937" stroke-width="1" stroke-opacity="0.75" />
    <line x1="0" y1="296" x2="1200" y2="296" stroke="#1f2937" stroke-width="1" stroke-opacity="0.75" />
    <line x1="0" y1="376" x2="1200" y2="376" stroke="#1f2937" stroke-width="1" stroke-opacity="0.75" />
    <line x1="0" y1="456" x2="1200" y2="456" stroke="#1f2937" stroke-width="1" stroke-opacity="0.75" />
    <line x1="0" y1="536" x2="1200" y2="536" stroke="#1f2937" stroke-width="1" stroke-opacity="0.75" />
    <line x1="0" y1="616" x2="1200" y2="616" stroke="#1f2937" stroke-width="1" stroke-opacity="0.75" />
  </g>
  <g class="layer-links">
    <line data-id="conn-b1-edge-sw" x1="99.5" y1="176" x2="125.3" y2="416" stroke="#334155" stroke-opacity="0.6" stroke-width="1.4" />
    <line data-id="conn-b1-sw-ap" x1="125.3" y1="416" x2="28" y2="416" stroke="#334155" stroke-opacity="0.6" stroke-width="1.4" />
    <line data-id="conn-b1-sw-pos" x1="125.3" y1="416" x2="171" y2="576" stroke="#334155" stroke-opacity="0.6" stroke-width="1.4" />
    <line data-id="conn-b1-vpn-hq1" x1="99.5" y1="176" x2="491.95" y2="176" stroke="#334155" stroke-opacity="0.6" stroke-width="1.4" />
    <line data-id="conn-b1-vpn-hq2" x1="99.5" y1="176" x2="1172" y2="176" stroke="#334155" stroke-opacity="0.6" stroke-width="1.4" />
    <line data-id="conn-b2-edge-sw" x1="385.5" y1="176" x2="411.3" y2="416" stroke="#334155" stroke-opacity="0.6" stroke-width="1.4" />
    <line data-id="conn-b2-sw-ap" x1="411.3" y1="416" x2="314" y2="416" stroke="#334155" stroke-opacity="0.6" stroke-width="1.4" />
    <line data-id="conn-b2-sw-pos" x1="411.3" y1="416" x2="457" y2="576" stroke="#334155" stroke-opacity="0.6" stroke-width="1.4" />
    <line data-id="conn-b2-vpn-hq1" x1="385.5" y1="176" x2="491.95" y2="176" stroke="#334155" stroke-opacity="0.6" stroke-width="1.4" />
    <line data-id="conn-b2-vpn-hq2" x1="385.5" y1="176" x2="1172" y2="176" stroke="#334155" stroke-opacity="0.6" stroke-width="1.4" />
    <line data-id="conn-b3-edge-sw" x1="631.95" y1="176" x2="697.3" y2="416" stroke="#334155" stroke-opacity="0.6" stroke-width="1.4" />
    <line data-id="conn-b3-sw-ap" x1="697.3" y1="416" x2="600" y2="416" stroke="#334155" stroke-opacity="0.6" stroke-width="1.4" />
    <line data-id="conn-b3-sw-pos" x1="697.3" y1="416" x2="600" y2="576" stroke="#334155" stroke-opacity="0.6" stroke-width="1.4" />
    <line data-id="conn-hq-core1-ap1" x1="671.5" y1="256" x2="785.05" y2="416" stroke="#334155" stroke-opacity="0.6" stroke-width="1.4" />
    <line data-id="conn-hq-core1-app" x1="671.5" y1="256" x2="743" y2="496" stroke="#334155" stroke-opacity="0.6" stroke-width="1.4" />
    <line data-id="conn-hq-core1-core2" x1="671.5" y1="256" x2="957.5" y2="256" stroke="#334155" stroke-opacity="0.6" stroke-width="1.4" />
    <line data-id="conn-hq-core2-ap2" x1="957.5" y1="256" x2="886" y2="416" stroke="#334155" stroke-opacity="0.6" stroke-width="1.4" />
    <line data-id="conn-hq-core2-db" x1="957.5" y1="256" x2="1029" y2="496" stroke="#334155" stroke-opacity="0.6" stroke-width="1.4" />
    <line data-id="conn-hq-edge1-fw" x1="491.95" y1="176" x2="814.5" y2="176" stroke="#334155" stroke-opacity="0.6" stroke-width="1.4" />
    <line data-id="conn-hq-edge2-fw" x1="1172" y1="176" x2="814.5" y2="176" stroke="#334155" stroke-opacity="0.6" stroke-width="1.4" />
    <line data-id="conn-hq-fw-core1" x1="814.5" y1="176" x2="671.5" y2="256" stroke="#334155" stroke-opacity="0.6" stroke-width="1.4" />
    <line data-id="conn-hq-fw-core2" x1="814.5" y1="176" x2="957.5" y2="256" stroke="#334155" stroke-opacity="0.6" stroke-width="1.4" />
    <line data-id="conn-hq-inet-edge1" x1="802.5833333333334" y1="96" x2="491.95" y2="176" stroke="#334155" stroke-opacity="0.6" stroke-width="1.4" />
    <line data-id="conn-hq-inet-edge2" x1="802.5833333333334" y1="96" x2="1172" y2="176" stroke="#334155" stroke-opacity="0.6" stroke-width="1.4" />
  </g>
  <g class="layer-nodes">
    <circle data-id="b1-ap" cx="28" cy="416" r="12" fill="#c084fc" stroke="#0b1220" stroke-width="2" />
    <circle data-id="b1-edge" cx="99.5" cy="176" r="12" fill="#34d399" stroke="#0b1220" stroke-width="2" />
    <circle data-id="b1-pos" cx="171" cy="576" r="12" fill="#c084fc" stroke="#0b1220" stroke-width="2" />
    <circle data-id="b1-sw" cx="125.3" cy="416" r="12" fill="#22d3ee" stroke="#0b1220" stroke-width="2" />
    <circle data-id="b2-ap" cx="314" cy="416" r="12" fill="#c084fc" stroke="#0b1220" stroke-width="2" />
    <circle data-id="b2-edge" cx="385.5" cy="176" r="12" fill="#34d399" stroke="#0b1220" stroke-width="2" />
    <circle data-id="b2-pos" cx="457" cy="576" r="12" fill="#c084fc" stroke="#0b1220" stroke-width="2" />
    <circle data-id="b2-sw" cx="411.3" cy="416" r="12" fill="#22d3ee" stroke="#0b1220" stroke-width="2" />
    <circle data-id="b3-ap" cx="600" cy="416" r="12" fill="#c084fc" stroke="#0b1220" stroke-width="2" />
    <circle data-id="b3-edge" cx="631.95" cy="176" r="12" fill="#34d399" stroke="#0b1220" stroke-width="2" />
    <circle data-id="b3-pos" cx="600" cy="576" r="12" fill="#c084fc" stroke="#0b1220" stroke-width="2" />
    <circle data-id="b3-sw" cx="697.3" cy="416" r="12" fill="#22d3ee" stroke="#0b1220" stroke-width="2" />
    <circle data-id="hq-app-1" cx="743" cy="496" r="12" fill="#fbbf24" stroke="#0b1220" stroke-width="2" />
    <circle data-id="hq-core-1" cx="671.5" cy="256" r="12" fill="#22d3ee" stroke="#0b1220" stroke-width="2" />
    <circle data-id="hq-core-2" cx="957.5" cy="256" r="12" fill="#22d3ee" stroke="#0b1220" stroke-width="2" />
    <circle data-id="hq-db-1" cx="1029" cy="496" r="12" fill="#fbbf24" stroke="#0b1220" stroke-width="2" />
    <circle data-id="hq-edge-1" cx="491.95" cy="176" r="12" fill="#34d399" stroke="#0b1220" stroke-width="2" />
    <circle data-id="hq-edge-2" cx="1172" cy="176" r="12" fill="#34d399" stroke="#0b1220" stroke-width="2" />
    <circle data-id="hq-fw-1" cx="814.5" cy="176" r="12" fill="#c084fc" stroke="#0b1220" stroke-width="2" />
    <circle data-id="hq-inet" cx="802.5833333333334" cy="96" r="12" fill="#c084fc" stroke="#0b1220" stroke-width="2" />
    <circle data-id="hq-wifi-1" cx="785.05" cy="416" r="12" fill="#c084fc" stroke="#0b1220" stroke-width="2" />
    <circle data-id="hq-wifi-2" cx="886" cy="416" r="12" fill="#c084fc" stroke="#0b1220" stroke-width="2" />
  </g>
  <g class="layer-labels">
    <text x="28" y="440" fill="#e2e8f0" font-size="11" text-anchor="middle">Branch-1 AP</text>
    <text x="99.5" y="200" fill="#e2e8f0" font-size="11" text-anchor="middle">Branch-1 Edge</text>
    <text x="171" y="600" fill="#e2e8f0" font-size="11" text-anchor="middle">Branch-1 POS</text>
    <text x="125.3" y="440" fill="#e2e8f0" font-size="11" text-anchor="middle">Branch-1 Switch</text>
    <text x="314" y="440" fill="#e2e8f0" font-size="11" text-anchor="middle">Branch-2 AP</text>
    <text x="385.5" y="200" fill="#e2e8f0" font-size="11" text-anchor="middle">Branch-2 Edge</text>
    <text x="457" y="600" fill="#e2e8f0" font-size="11" text-anchor="middle">Branch-2 POS</text>
    <text x="411.3" y="440" fill="#e2e8f0" font-size="11" text-anchor="middle">Branch-2 Switch</text>
    <text x="600" y="440" fill="#e2e8f0" font-size="11" text-anchor="middle">Branch-3 AP</text>
    <text x="631.95" y="200" fill="#e2e8f0" font-size="11" text-anchor="middle">Branch-3 Edge (Isolated)</text>
    <text x="600" y="600" fill="#e2e8f0" font-size="11" text-anchor="middle">Branch-3 POS</text>
    <text x="697.3" y="440" fill="#e2e8f0" font-size="11" text-anchor="middle">Branch-3 Switch</text>
    <text x="743" y="520" fill="#e2e8f0" font-size="11" text-anchor="middle">HQ App Server</text>
    <text x="671.5" y="280" fill="#e2e8f0" font-size="11" text-anchor="middle">HQ Core 1</text>
    <text x="957.5" y="280" fill="#e2e8f0" font-size="11" text-anchor="middle">HQ Core 2</text>
    <text x="1029" y="520" fill="#e2e8f0" font-size="11" text-anchor="middle">HQ DB Server</text>
    <text x="491.95" y="200" fill="#e2e8f0" font-size="11" text-anchor="middle">HQ SD-WAN Edge 1</text>
    <text x="1172" y="200" fill="#e2e8f0" font-size="11" text-anchor="middle">HQ SD-WAN Edge 2</text>
    <text x="814.5" y="200" fill="#e2e8f0" font-size="11" text-anchor="middle">HQ Firewall</text>
    <text x="802.5833333333334" y="120" fill="#e2e8f0" font-size="11" text-anchor="middle">HQ Internet</text>
    <text x="785.05" y="440" fill="#e2e8f0" font-size="11" text-anchor="middle">HQ AP-1</text>
    <text x="886" y="440" fill="#e2e8f0" font-size="11" text-anchor="middle">HQ AP-2</text>
  </g>
</svg>
