<?xml version="1.0" encoding="UTF-8"?>
<svg xmlns="http://www.w3.org/2000/svg" viewBox="0 0 1200 720" width="1200" height="720" role="img" aria-label="Metro ring (POPs + customers) (metro-ring)">
  <title>Metro ring (POPs + customers) (metro-ring)</title>
  <desc>Generated by scripts/renderNetworkSvgs.ts.</desc>
  <g class="layer-guides" pointer-events="none">
    <line x1="0" y1="136" x2="1200" y2="136" stroke="#1f2937" stroke-width="1" stroke-opacity="0.75" />
    <line x1="0" y1="216" x2="1200" y2="216" stroke="#1f2937" stroke-width="1" stroke-opacity="0.75" />
    <line x1="0" y1="296" x2="1200" y2="296" stroke="#1f2937" stroke-width="1" stroke-opacity="0.75" />
    <line x1="0" y1="376" x2="1200" y2="376" stroke="#1f2937" stroke-width="1" stroke-opacity="0.75" />
    <line x1="0" y1="456" x2="1200" y2="456" stroke="#1f2937" stroke-width="1" stroke-opacity="0.75" />
    <line x1="0" y1="536" x2="1200" y2="536" stroke="#1f2937" stroke-width="1" stroke-opacity="0.75" />
    <line x1="0" y1="616" x2="1200" y2="616" stroke="#1f2937" stroke-width="1" stroke-opacity="0.75" />
  </g>
  <g class="layer-links">
    <line data-id="conn-cust-a-pop2" x1="28" y1="176" x2="123.33333333333333" y2="176" stroke="#334155" stroke-opacity="0.6" stroke-width="1.4" />
    <line data-id="conn-cust-b-pop3" x1="218.66666666666663" y1="176" x2="284.66666666666663" y2="176" stroke="#334155" stroke-opacity="0.6" stroke-width="1.4" />
    <line data-id="conn-cust-c-pop4" x1="908" y1="176" x2="974" y2="176" stroke="#334155" stroke-opacity="0.6" stroke-width="1.4" />
    <line data-id="conn-cust-d-pop6" x1="1106" y1="176" x2="1172" y2="176" stroke="#334155" stroke-opacity="0.6" stroke-width="1.4" />
    <line data-id="conn-cust-e-pop7" x1="600" y1="176" x2="666" y2="176" stroke="#334155" stroke-opacity="0.6" stroke-width="1.4" />
    <line data-id="conn-cust-f-pop8" x1="416.66666666666663" y1="176" x2="504.6666666666667" y2="176" stroke="#334155" stroke-opacity="0.6" stroke-width="1.4" />
    <line data-id="conn-ring-1-2" x1="350.66666666666663" y1="176" x2="123.33333333333333" y2="176" stroke="#334155" stroke-opacity="0.6" stroke-width="1.4" />
    <line data-id="conn-ring-2-3" x1="123.33333333333333" y1="176" x2="284.66666666666663" y2="176" stroke="#334155" stroke-opacity="0.6" stroke-width="1.4" />
    <line data-id="conn-ring-3-4" x1="284.66666666666663" y1="176" x2="974" y2="176" stroke="#334155" stroke-opacity="0.6" stroke-width="1.4" />
    <line data-id="conn-ring-4-5" x1="974" y1="176" x2="1040" y2="176" stroke="#334155" stroke-opacity="0.6" stroke-width="1.4" />
    <line data-id="conn-ring-5-6" x1="1040" y1="176" x2="1172" y2="176" stroke="#334155" stroke-opacity="0.6" stroke-width="1.4" />
    <line data-id="conn-ring-6-7" x1="1172" y1="176" x2="666" y2="176" stroke="#334155" stroke-opacity="0.6" stroke-width="1.4" />
    <line data-id="conn-ring-7-8" x1="666" y1="176" x2="504.6666666666667" y2="176" stroke="#334155" stroke-opacity="0.6" stroke-width="1.4" />
    <line data-id="conn-ring-8-1" x1="504.6666666666667" y1="176" x2="350.66666666666663" y2="176" stroke="#334155" stroke-opacity="0.6" stroke-width="1.4" />
    <line data-id="conn-transit1-pop1" x1="314" y1="96" x2="350.66666666666663" y2="176" stroke="#334155" stroke-opacity="0.6" stroke-width="1.4" />
    <line data-id="conn-transit2-pop5" x1="1076.6666666666665" y1="96" x2="1040" y2="176" stroke="#334155" stroke-opacity="0.6" stroke-width="1.4" />
  </g>
  <g class="layer-nodes">
    <circle data-id="cust-a" cx="28" cy="176" r="12" fill="#34d399" stroke="#0b1220" stroke-width="2" />
    <circle data-id="cust-b" cx="218.66666666666663" cy="176" r="12" fill="#34d399" stroke="#0b1220" stroke-width="2" />
    <circle data-id="cust-c" cx="908" cy="176" r="12" fill="#34d399" stroke="#0b1220" stroke-width="2" />
    <circle data-id="cust-d" cx="1106" cy="176" r="12" fill="#34d399" stroke="#0b1220" stroke-width="2" />
    <circle data-id="cust-e" cx="600" cy="176" r="12" fill="#34d399" stroke="#0b1220" stroke-width="2" />
    <circle data-id="cust-f" cx="416.66666666666663" cy="176" r="12" fill="#34d399" stroke="#0b1220" stroke-width="2" />
    <circle data-id="pop-1" cx="350.66666666666663" cy="176" r="12" fill="#34d399" stroke="#0b1220" stroke-width="2" />
    <circle data-id="pop-2" cx="123.33333333333333" cy="176" r="12" fill="#34d399" stroke="#0b1220" stroke-width="2" />
    <circle data-id="pop-3" cx="284.66666666666663" cy="176" r="12" fill="#34d399" stroke="#0b1220" stroke-width="2" />
    <circle data-id="pop-4" cx="974" cy="176" r="12" fill="#34d399" stroke="#0b1220" stroke-width="2" />
    <circle data-id="pop-5" cx="1040" cy="176" r="12" fill="#34d399" stroke="#0b1220" stroke-width="2" />
    <circle data-id="pop-6" cx="1172" cy="176" r="12" fill="#34d399" stroke="#0b1220" stroke-width="2" />
    <circle data-id="pop-7" cx="666" cy="176" r="12" fill="#34d399" stroke="#0b1220" stroke-width="2" />
    <circle data-id="pop-8" cx="504.6666666666667" cy="176" r="12" fill="#34d399" stroke="#0b1220" stroke-width="2" />
    <circle data-id="transit-1" cx="314" cy="96" r="12" fill="#c084fc" stroke="#0b1220" stroke-width="2" />
    <circle data-id="transit-2" cx="1076.6666666666665" cy="96" r="12" fill="#c084fc" stroke="#0b1220" stroke-width="2" />
  </g>
  <g class="layer-labels">
    <text x="28" y="200" fill="#e2e8f0" font-size="11" text-anchor="middle">Cust-A</text>
    <text x="218.66666666666663" y="200" fill="#e2e8f0" font-size="11" text-anchor="middle">Cust-B</text>
    <text x="908" y="200" fill="#e2e8f0" font-size="11" text-anchor="middle">Cust-C</text>
    <text x="1106" y="200" fill="#e2e8f0" font-size="11" text-anchor="middle">Cust-D</text>
    <text x="600" y="200" fill="#e2e8f0" font-size="11" text-anchor="middle">Cust-E</text>
    <text x="416.66666666666663" y="200" fill="#e2e8f0" font-size="11" text-anchor="middle">Cust-F</text>
    <text x="350.66666666666663" y="200" fill="#e2e8f0" font-size="11" text-anchor="middle">POP-1</text>
    <text x="123.33333333333333" y="200" fill="#e2e8f0" font-size="11" text-anchor="middle">POP-2</text>
    <text x="284.66666666666663" y="200" fill="#e2e8f0" font-size="11" text-anchor="middle">POP-3</text>
    <text x="974" y="200" fill="#e2e8f0" font-size="11" text-anchor="middle">POP-4</text>
    <text x="1040" y="200" fill="#e2e8f0" font-size="11" text-anchor="middle">POP-5</text>
    <text x="1172" y="200" fill="#e2e8f0" font-size="11" text-anchor="middle">POP-6</text>
    <text x="666" y="200" fill="#e2e8f0" font-size="11" text-anchor="middle">POP-7</text>
    <text x="504.6666666666667" y="200" fill="#e2e8f0" font-size="11" text-anchor="middle">POP-8</text>
    <text x="314" y="120" fill="#e2e8f0" font-size="11" text-anchor="middle">Transit-1</text>
    <text x="1076.6666666666665" y="120" fill="#e2e8f0" font-size="11" text-anchor="middle">Transit-2</text>
  </g>
</svg>
