<?xml version="1.0" encoding="UTF-8"?>
<svg xmlns="http://www.w3.org/2000/svg" viewBox="0 0 1200 720" width="1200" height="720" role="img" aria-label="Small Office (flat star) (small-office)">
  <title>Small Office (flat star) (small-office)</title>
  <desc>Generated by scripts/renderNetworkSvgs.ts.</desc>
  <g class="layer-guides" pointer-events="none">
    <line x1="0" y1="136" x2="1200" y2="136" stroke="#1f2937" stroke-width="1" stroke-opacity="0.75" />
    <line x1="0" y1="216" x2="1200" y2="216" stroke="#1f2937" stroke-width="1" stroke-opacity="0.75" />
    <line x1="0" y1="296" x2="1200" y2="296" stroke="#1f2937" stroke-width="1" stroke-opacity="0.75" />
    <line x1="0" y1="376" x2="1200" y2="376" stroke="#1f2937" stroke-width="1" stroke-opacity="0.75" />
    <line x1="0" y1="456" x2="1200" y2="456" stroke="#1f2937" stroke-width="1" stroke-opacity="0.75" />
    <line x1="0" y1="536" x2="1200" y2="536" stroke="#1f2937" stroke-width="1" stroke-opacity="0.75" />
    <line x1="0" y1="616" x2="1200" y2="616" stroke="#1f2937" stroke-width="1" stroke-opacity="0.75" />
  </g>
  <g class="layer-links">
    <line data-id="conn-access-ap1" x1="485.6" y1="416" x2="256.8" y2="416" stroke="#334155" stroke-opacity="0.6" stroke-width="1.4" />
    <line data-id="conn-access-ap2" x1="485.6" y1="416" x2="28" y2="416" stroke="#334155" stroke-opacity="0.6" stroke-width="1.4" />
    <line data-id="conn-access-iot" x1="485.6" y1="416" x2="485.6" y2="576" stroke="#334155" stroke-opacity="0.6" stroke-width="1.4" />
    <line data-id="conn-access-pc" x1="485.6" y1="416" x2="714.4" y2="576" stroke="#334155" stroke-opacity="0.6" stroke-width="1.4" />
    <line data-id="conn-access-printer" x1="485.6" y1="416" x2="943.2" y2="576" stroke="#334155" stroke-opacity="0.6" stroke-width="1.4" />
    <line data-id="conn-core-access" x1="828.8" y1="256" x2="485.6" y2="416" stroke="#334155" stroke-opacity="0.6" stroke-width="1.4" />
    <line data-id="conn-core-nas" x1="828.8" y1="256" x2="1172" y2="496" stroke="#334155" stroke-opacity="0.6" stroke-width="1.4" />
    <line data-id="conn-edge-fw" x1="828.8" y1="176" x2="904.75" y2="176" stroke="#334155" stroke-opacity="0.6" stroke-width="1.4" />
    <line data-id="conn-fw-core" x1="904.75" y1="176" x2="828.8" y2="256" stroke="#334155" stroke-opacity="0.6" stroke-width="1.4" />
    <line data-id="conn-isp-edge" x1="828.8" y1="96" x2="828.8" y2="176" stroke="#334155" stroke-opacity="0.6" stroke-width="1.4" />
  </g>
  <g class="layer-nodes">
    <circle data-id="acc-sw-1" cx="485.6" cy="416" r="12" fill="#22d3ee" stroke="#0b1220" stroke-width="2" />
    <circle data-id="ap-1" cx="256.8" cy="416" r="12" fill="#c084fc" stroke="#0b1220" stroke-width="2" />
    <circle data-id="ap-2" cx="28" cy="416" r="12" fill="#c084fc" stroke="#0b1220" stroke-width="2" />
    <circle data-id="core-sw-1" cx="828.8" cy="256" r="12" fill="#22d3ee" stroke="#0b1220" stroke-width="2" />
    <circle data-id="edge-1" cx="828.8" cy="176" r="12" fill="#34d399" stroke="#0b1220" stroke-width="2" />
    <circle data-id="fw-1" cx="904.75" cy="176" r="12" fill="#c084fc" stroke="#0b1220" stroke-width="2" />
    <circle data-id="iot-gw-1" cx="485.6" cy="576" r="12" fill="#c084fc" stroke="#0b1220" stroke-width="2" />
    <circle data-id="isp-1" cx="828.8" cy="96" r="12" fill="#c084fc" stroke="#0b1220" stroke-width="2" />
    <circle data-id="nas-1" cx="1172" cy="496" r="12" fill="#fbbf24" stroke="#0b1220" stroke-width="2" />
    <circle data-id="pc-1" cx="714.4" cy="576" r="12" fill="#c084fc" stroke="#0b1220" stroke-width="2" />
    <circle data-id="printer-1" cx="943.2" cy="576" r="12" fill="#c084fc" stroke="#0b1220" stroke-width="2" />
  </g>
  <g class="layer-labels">
    <text x="485.6" y="440" fill="#e2e8f0" font-size="11" text-anchor="middle">Access Switch</text>
    <text x="256.8" y="440" fill="#e2e8f0" font-size="11" text-anchor="middle">Access Point (Front)</text>
    <text x="28" y="440" fill="#e2e8f0" font-size="11" text-anchor="middle">Access Point (Back)</text>
    <text x="828.8" y="280" fill="#e2e8f0" font-size="11" text-anchor="middle">Core Switch</text>
    <text x="828.8" y="200" fill="#e2e8f0" font-size="11" text-anchor="middle">Edge Router</text>
    <text x="904.75" y="200" fill="#e2e8f0" font-size="11" text-anchor="middle">Firewall</text>
    <text x="485.6" y="600" fill="#e2e8f0" font-size="11" text-anchor="middle">IoT Gateway</text>
    <text x="828.8" y="120" fill="#e2e8f0" font-size="11" text-anchor="middle">ISP CPE</text>
    <text x="1172" y="520" fill="#e2e8f0" font-size="11" text-anchor="middle">NAS</text>
    <text x="714.4" y="600" fill="#e2e8f0" font-size="11" text-anchor="middle">Office PC</text>
    <text x="943.2" y="600" fill="#e2e8f0" font-size="11" text-anchor="middle">Printer</text>
  </g>
</svg>
